<?xml version="1.0" encoding="UTF-8"?>
<svg width="415px" height="80px" viewBox="0 0 415 80" version="1.1" xmlns="http://www.w3.org/2000/svg" xmlns:xlink="http://www.w3.org/1999/xlink">
    <!-- Generator: Sketch 54.1 (76490) - https://sketchapp.com -->
    <title>Group 2</title>
    <desc>Created with Sketch.</desc>
    <g id="Wireframe" stroke="none" stroke-width="1" fill="none" fill-rule="evenodd">
        <g id="Artboard" transform="translate(-118.000000, -948.000000)" fill="#FFFFFF" fill-rule="nonzero">
            <g id="logo_horizontal_primary" transform="translate(74.000000, 908.000000)">
                <g id="Group-2" transform="translate(44.000000, 40.000000)">
                    <g id="Group" transform="translate(130.000000, 19.000000)">
                        <path d="M16.2,37.7 L16.2,31 L25.1,31 L25.1,36.6 C25.1,42.5 22.3,45.4 16.8,45.4 L8.4,45.4 C2.9,45.4 0.1,42.5 0.1,36.6 L0.1,9.6 C0.1,3.7 2.9,0.8 8.4,0.8 L16.8,0.8 C22.3,0.8 25.1,3.7 25.1,9.6 L25.1,13.7 L16.2,13.7 L16.2,8.5 C16.2,8.1 16.1,7.8 15.8,7.6 C15.6,7.3 15.3,7.2 14.9,7.2 L10.7,7.2 C10.3,7.2 10,7.3 9.8,7.6 C9.6,7.9 9.4,8.2 9.4,8.5 L9.4,37.7 C9.4,38.1 9.5,38.4 9.8,38.6 C10,38.9 10.3,39 10.7,39 L14.9,39 C15.3,39 15.6,38.9 15.8,38.6 C16.1,38.3 16.2,38 16.2,37.7 Z" id="Path"></path>
                        <path d="M54.6,20.2 L54.6,36.5 C54.6,42.4 51.8,45.3 46.3,45.3 L38.7,45.3 C33.2,45.3 30.4,42.4 30.4,36.5 L30.4,20.2 C30.4,14.3 33.2,11.4 38.7,11.4 L46.3,11.4 C51.8,11.4 54.6,14.3 54.6,20.2 Z M45.6,38.5 L45.6,18.3 C45.6,17.9 45.5,17.6 45.2,17.4 C45,17.1 44.7,17 44.3,17 L40.6,17 C40.2,17 39.9,17.1 39.7,17.4 C39.5,17.7 39.3,18 39.3,18.3 L39.3,38.5 C39.3,38.9 39.4,39.2 39.7,39.4 C39.9,39.7 40.2,39.8 40.6,39.8 L44.3,39.8 C44.7,39.8 45,39.7 45.2,39.4 C45.5,39.1 45.6,38.8 45.6,38.5 Z" id="Shape"></path>
                        <polygon id="Path" points="75.6 12.1 84.2 12.1 89.1 37.5 92.9 12.1 101.6 12.1 94.4 44.8 83.5 44.8 79.8 24.6 76.1 44.8 65.2 44.8 58 12.1 66.7 12.1 70.5 37.5"></polygon>
                        <path d="M143,12.8 L134,12.8 L134,9.4 C134,9 133.9,8.7 133.6,8.5 C133.4,8.2 133.1,8.1 132.7,8.1 L129,8.1 C128.6,8.1 128.3,8.2 128.1,8.5 C127.9,8.8 127.7,9.1 127.7,9.4 L127.7,17.1 C127.7,17.5 127.8,17.8 128.1,18 C128.3,18.3 128.6,18.4 129,18.4 L135,18.4 C140.5,18.5 143.3,21.4 143.3,27.2 L143.3,36.5 C143.3,42.4 140.5,45.3 135,45.3 L127.1,45.3 C121.6,45.3 118.8,42.4 118.8,36.5 L118.8,32 L127.7,32 L127.7,36.8 C127.7,37.2 127.8,37.5 128.1,37.7 C128.3,38 128.6,38.1 129,38.1 L133.2,38.1 C133.6,38.1 133.9,38 134.1,37.7 C134.3,37.4 134.5,37.1 134.5,36.8 L134.5,28.3 C134.5,27.9 134.4,27.6 134.1,27.4 C133.9,27.1 133.6,27 133.2,27 L127.2,27 C121.7,27 118.9,24.1 118.9,18.2 L118.9,9.6 C118.9,3.7 121.7,0.8 127.2,0.8 L134.6,0.8 C140.1,0.8 142.9,3.7 142.9,9.6 L142.9,12.8 L143,12.8 Z" id="Path"></path>
                        <path d="M159,45.4 L157.6,45.4 C152.1,45.4 149.3,42.5 149.3,36.6 L149.3,20.3 C149.3,14.4 152.1,11.5 157.6,11.5 L159,11.5 C162.2,11.5 164.5,12.5 165.9,14.6 L165.9,12.2 L173.5,12.2 L173.5,55.5 L164.5,55.5 L164.5,43.9 C163.1,44.9 161.2,45.4 159,45.4 Z M164.5,37.7 L164.5,19.2 C164.5,18.8 164.4,18.5 164.1,18.3 C163.9,18 163.6,17.9 163.2,17.9 L159.5,17.9 C159.1,17.9 158.8,18 158.6,18.3 C158.4,18.6 158.2,18.9 158.2,19.2 L158.2,37.7 C158.2,38.1 158.3,38.4 158.6,38.6 C158.8,38.9 159.1,39 159.5,39 L163.2,39 C163.6,39 163.9,38.9 164.1,38.6 C164.3,38.3 164.5,38 164.5,37.7 Z" id="Shape"></path>
                        <path d="M194.7,12.1 L203.7,12.1 L203.7,44.8 L195.5,44.8 L195.5,43.1 C194.1,44.7 192,45.4 189.2,45.4 L187.8,45.4 C182.3,45.4 179.5,42.5 179.5,36.6 L179.5,12.1 L188.5,12.1 L188.5,37.7 C188.5,38.1 188.6,38.4 188.9,38.6 C189.1,38.9 189.4,39 189.8,39 L193.5,39 C193.9,39 194.2,38.9 194.4,38.6 C194.6,38.3 194.8,38 194.8,37.7 L194.8,12.1 L194.7,12.1 Z" id="Path"></path>
                        <path d="M226.4,12.1 L234,12.1 L234,44.8 L226.4,44.8 L226.4,42.4 C225,44.5 222.7,45.5 219.5,45.5 L218.1,45.5 C212.6,45.5 209.8,42.6 209.8,36.7 L209.8,20.4 C209.8,14.5 212.6,11.6 218.1,11.6 L219.5,11.6 C222.7,11.6 225,12.6 226.4,14.7 L226.4,12.1 Z M225,37.7 L225,19.2 C225,18.8 224.9,18.5 224.6,18.3 C224.4,18 224.1,17.9 223.7,17.9 L220,17.9 C219.6,17.9 219.3,18 219.1,18.3 C218.9,18.6 218.7,18.9 218.7,19.2 L218.7,37.7 C218.7,38.1 218.8,38.4 219.1,38.6 C219.3,38.9 219.6,39 220,39 L223.7,39 C224.1,39 224.4,38.9 224.6,38.6 C224.9,38.3 225,38 225,37.7 Z" id="Shape"></path>
                        <path d="M254,11.4 L255.7,11.4 L255.7,20.1 L251.3,20.1 C249.8,20.1 249,20.9 249,22.4 L249,44.7 L240,44.7 L240,12 L248.2,12 L248.2,15.1 C249.6,12.7 251.5,11.4 254,11.4 Z" id="Path"></path>
                        <path d="M275.7,11.4 C281.2,11.4 284,14.3 284,20.2 L284,30.8 L268.8,30.8 L268.8,37.6 C268.8,38 268.9,38.3 269.2,38.5 C269.4,38.8 269.7,38.9 270.1,38.9 L273.8,38.9 C274.2,38.9 274.5,38.8 274.7,38.5 C274.9,38.2 275.1,37.9 275.1,37.6 L275.1,34 L284.1,34 L284.1,36.5 C284.1,42.4 281.3,45.3 275.8,45.3 L268.2,45.3 C262.7,45.3 259.9,42.4 259.9,36.5 L259.9,20.2 C259.9,14.3 262.7,11.4 268.2,11.4 L275.7,11.4 L275.7,11.4 Z M268.8,24.9 L275,24.9 L275,18.9 C275,18.5 274.9,18.2 274.6,18 C274.4,17.7 274.1,17.6 273.7,17.6 L270,17.6 C269.6,17.6 269.3,17.7 269.1,18 C268.9,18.3 268.7,18.6 268.7,18.9 L268.7,24.9 L268.8,24.9 Z" id="Shape"></path>
                    </g>
                    <g id="Group">
                        <path d="M91.4,1 C89.9,0.1 88,0.3 86.7,1.5 C82.7,5.1 77.6,7 72.2,6.9 C71.8,6.9 71.5,6.9 71.2,6.9 L71.1,6.9 C71,6.9 71,6.9 70.9,6.9 L22.9,6.9 C22.6,6.9 22.2,6.9 21.9,6.9 C16.6,7 11.4,5.1 7.4,1.5 C6.1,0.3 4.3,0.1 2.7,1 C1.2,1.9 0.4,3.5 0.7,5.2 L0.7,5.3 C1.9,11.6 5.3,17 10.4,20.8 L10.4,65.6 C10.4,73.5 16.8,80 24.8,80 L69.2,80 C77.1,80 83.6,73.6 83.6,65.6 L83.6,20.8 C88.7,17 92.1,11.5 93.3,5.3 L93.3,5.2 C93.7,3.5 92.9,1.8 91.4,1 Z M80.4,18 L79.5,18.6 L79.5,48.9 L80.1,48.3 C80.9,47.5 82.2,47.4 83,48.2 C83.8,49 83.9,50.3 83.1,51.1 L79.5,54.8 L79.5,65.5 C79.5,71.1 74.9,75.7 69.3,75.7 L24.9,75.7 C19.3,75.7 14.7,71.1 14.7,65.5 L14.7,54.7 L11.2,51.1 C10.4,50.3 10.4,49 11.3,48.2 C12.1,47.4 13.4,47.4 14.2,48.3 L14.7,48.8 L14.7,18.6 L13.8,18 C9.2,14.9 6.1,10.2 5,4.8 C9.8,9 15.8,11.2 22.1,11 C22.2,11 22.2,11 22.3,11 C22.5,11 22.8,11 23,11 L71.3,11 C71.5,11 71.7,11 72,11 C72.1,11 72.1,11 72.2,11 C78.5,11.2 84.6,9 89.3,4.8 C88.1,10.2 85,14.9 80.4,18 Z" id="Shape"></path>
                        <path d="M70.8,48.3 L70.7,48.2 C70.1,47.6 69.3,47.3 68.4,47.3 C67.6,47.3 66.8,47.6 66.1,48.2 L61.3,53.2 L56.6,48.3 L56.5,48.2 C55.9,47.6 55.1,47.3 54.2,47.3 C53.4,47.3 52.6,47.6 51.9,48.2 L47.1,53.2 L42.4,48.3 L42.3,48.2 C41.7,47.6 40.9,47.3 40,47.3 C39.2,47.3 38.4,47.6 37.7,48.2 L32.9,53.2 L28.2,48.3 L28.1,48.2 C27.5,47.6 26.7,47.3 25.8,47.3 C25,47.3 24.2,47.6 23.5,48.2 L18.7,53.2 L14.5,48.8 L14,48.3 C13.2,47.5 11.9,47.4 11.1,48.2 C10.3,49 10.2,50.3 11,51.1 L14.5,54.7 L16.1,56.4 C16.8,57.1 17.7,57.5 18.7,57.5 C18.7,57.5 18.7,57.5 18.7,57.5 C19.7,57.5 20.6,57.1 21.3,56.4 L25.8,51.7 L30.3,56.4 C31,57.1 31.9,57.5 32.9,57.5 C32.9,57.5 32.9,57.5 32.9,57.5 C33.9,57.5 34.8,57.1 35.5,56.4 L40,51.7 L44.5,56.4 C45.2,57.1 46.1,57.5 47.1,57.5 C47.1,57.5 47.1,57.5 47.1,57.5 C48.1,57.5 49,57.1 49.7,56.4 L54.2,51.7 L58.7,56.4 C59.4,57.1 60.3,57.5 61.3,57.5 C61.3,57.5 61.3,57.5 61.3,57.5 C62.3,57.5 63.2,57.1 63.9,56.4 L68.4,51.7 L72.9,56.4 C73.6,57.1 74.5,57.5 75.5,57.5 C75.5,57.5 75.5,57.5 75.5,57.5 C76.5,57.5 77.4,57.1 78.1,56.4 L79.6,54.8 L83.2,51.1 C84,50.3 84,49 83.1,48.2 C82.3,47.4 81,47.4 80.2,48.3 L79.6,48.9 L75.5,53.2 L70.8,48.3 Z" id="Path"></path>
                    </g>
                </g>
            </g>
        </g>
    </g>
</svg>