<?xml version="1.0" encoding="UTF-8"?>
<svg width="410px" height="80px" viewBox="0 0 410 80" version="1.1" xmlns="http://www.w3.org/2000/svg" xmlns:xlink="http://www.w3.org/1999/xlink">
    <!-- Generator: Sketch 54.1 (76490) - https://sketchapp.com -->
    <title>logo-dark</title>
    <desc>Created with Sketch.</desc>
    <g id="Wireframe" stroke="none" stroke-width="1" fill="none" fill-rule="evenodd">
        <g id="Artboard" transform="translate(-879.000000, -303.000000)" fill="#000000" fill-rule="nonzero">
            <g id="logo_horizontal_bw" transform="translate(829.000000, 265.000000)">
                <g id="logo-dark" transform="translate(50.000000, 38.000000)">
                    <g id="Group" transform="translate(125.000000, 19.000000)">
                        <path d="M17,37.5 L17,30.8 L25.9,30.8 L25.9,36.4 C25.9,42.3 23.1,45.2 17.6,45.2 L9.2,45.2 C3.7,45.2 0.9,42.3 0.9,36.4 L0.9,9.4 C0.9,3.5 3.7,0.6 9.2,0.6 L17.6,0.6 C23.1,0.6 25.9,3.5 25.9,9.4 L25.9,13.5 L17,13.5 L17,8.3 C17,7.9 16.9,7.6 16.6,7.4 C16.4,7.1 16.1,7 15.7,7 L11.5,7 C11.1,7 10.8,7.1 10.6,7.4 C10.4,7.7 10.2,8 10.2,8.3 L10.2,37.5 C10.2,37.9 10.3,38.2 10.6,38.4 C10.8,38.7 11.1,38.8 11.5,38.8 L15.7,38.8 C16.1,38.8 16.4,38.7 16.6,38.4 C16.9,38.2 17,37.9 17,37.5 Z" id="Path"></path>
                        <path d="M55.4,20.1 L55.4,36.4 C55.4,42.3 52.6,45.2 47.1,45.2 L39.5,45.2 C34,45.2 31.2,42.3 31.2,36.4 L31.2,20.1 C31.2,14.2 34,11.3 39.5,11.3 L47.1,11.3 C52.7,11.2 55.4,14.2 55.4,20.1 Z M46.4,38.3 L46.4,18.1 C46.4,17.7 46.3,17.4 46,17.2 C45.8,16.9 45.5,16.8 45.1,16.8 L41.4,16.8 C41,16.8 40.7,16.9 40.5,17.2 C40.3,17.5 40.1,17.8 40.1,18.1 L40.1,38.3 C40.1,38.7 40.2,39 40.5,39.2 C40.7,39.5 41,39.6 41.4,39.6 L45.1,39.6 C45.5,39.6 45.8,39.5 46,39.2 C46.3,39 46.4,38.7 46.4,38.3 Z" id="Shape"></path>
                        <polygon id="Path" points="76.4 11.9 85 11.9 89.9 37.3 93.7 11.9 102.4 11.9 95.2 44.6 84.3 44.6 80.6 24.4 76.9 44.6 66 44.6 58.8 11.9 67.5 11.9 71.3 37.3"></polygon>
                        <path d="M143.8,12.7 L134.9,12.7 L134.9,9.3 C134.9,8.9 134.8,8.6 134.5,8.4 C134.3,8.1 134,8 133.6,8 L129.9,8 C129.5,8 129.2,8.1 129,8.4 C128.8,8.7 128.6,9 128.6,9.3 L128.6,17 C128.6,17.4 128.7,17.7 129,17.9 C129.2,18.2 129.5,18.3 129.9,18.3 L135.9,18.3 C141.4,18.4 144.2,21.3 144.2,27.1 L144.2,36.4 C144.2,42.3 141.4,45.2 135.9,45.2 L128,45.2 C122.5,45.2 119.7,42.3 119.7,36.4 L119.7,32 L128.6,32 L128.6,36.8 C128.6,37.2 128.7,37.5 129,37.7 C129.2,38 129.5,38.1 129.9,38.1 L134.1,38.1 C134.5,38.1 134.8,38 135,37.7 C135.2,37.4 135.4,37.1 135.4,36.8 L135.4,28.3 C135.4,27.9 135.3,27.6 135,27.4 C134.8,27.1 134.5,27 134.1,27 L128.1,27 C122.6,27 119.8,24.1 119.8,18.2 L119.8,9.6 C119.8,3.7 122.6,0.8 128.1,0.8 L135.5,0.8 C141,0.8 143.8,3.7 143.8,9.6 L143.8,12.7 Z" id="Path"></path>
                        <path d="M159.8,45.3 L158.4,45.3 C152.9,45.3 150.1,42.4 150.1,36.5 L150.1,20.2 C150.1,14.3 152.9,11.4 158.4,11.4 L159.8,11.4 C163,11.4 165.3,12.4 166.7,14.5 L166.7,12.1 L174.3,12.1 L174.3,55.4 L165.3,55.4 L165.3,43.8 C163.9,44.7 162.1,45.3 159.8,45.3 Z M165.3,37.5 L165.3,19 C165.3,18.6 165.2,18.3 164.9,18.1 C164.7,17.8 164.4,17.7 164,17.7 L160.3,17.7 C159.9,17.7 159.6,17.8 159.4,18.1 C159.2,18.4 159,18.7 159,19 L159,37.5 C159,37.9 159.1,38.2 159.4,38.4 C159.6,38.7 159.9,38.8 160.3,38.8 L164,38.8 C164.4,38.8 164.7,38.7 164.9,38.4 C165.2,38.2 165.3,37.9 165.3,37.5 Z" id="Shape"></path>
                        <path d="M195.6,11.9 L204.6,11.9 L204.6,44.6 L196.4,44.6 L196.4,42.9 C195,44.5 192.9,45.2 190.1,45.2 L188.7,45.2 C183.2,45.2 180.4,42.3 180.4,36.4 L180.4,11.9 L189.4,11.9 L189.4,37.5 C189.4,37.9 189.5,38.2 189.8,38.4 C190,38.7 190.3,38.8 190.7,38.8 L194.4,38.8 C194.8,38.8 195.1,38.7 195.3,38.4 C195.5,38.1 195.7,37.8 195.7,37.5 L195.7,11.9 L195.6,11.9 Z" id="Path"></path>
                        <path d="M227.3,11.9 L234.9,11.9 L234.9,44.6 L227.3,44.6 L227.3,42.2 C225.9,44.3 223.6,45.3 220.4,45.3 L219,45.3 C213.5,45.3 210.7,42.4 210.7,36.5 L210.7,20.2 C210.7,14.3 213.5,11.4 219,11.4 L220.4,11.4 C223.6,11.4 225.9,12.4 227.3,14.5 L227.3,11.9 Z M225.9,37.5 L225.9,19 C225.9,18.6 225.8,18.3 225.5,18.1 C225.3,17.8 225,17.7 224.6,17.7 L220.9,17.7 C220.5,17.7 220.2,17.8 220,18.1 C219.8,18.4 219.6,18.7 219.6,19 L219.6,37.5 C219.6,37.9 219.7,38.2 220,38.4 C220.2,38.7 220.5,38.8 220.9,38.8 L224.6,38.8 C225,38.8 225.3,38.7 225.5,38.4 C225.7,38.2 225.9,37.9 225.9,37.5 Z" id="Shape"></path>
                        <path d="M254.9,11.2 L256.6,11.2 L256.6,19.9 L252.2,19.9 C250.7,19.9 249.9,20.7 249.9,22.2 L249.9,44.5 L240.9,44.5 L240.9,11.8 L249.1,11.8 L249.1,14.9 C250.4,12.5 252.3,11.2 254.9,11.2 Z" id="Path"></path>
                        <path d="M276.5,11.2 C282,11.2 284.8,14.1 284.8,20 L284.8,30.6 L269.6,30.6 L269.6,37.4 C269.6,37.8 269.7,38.1 270,38.3 C270.2,38.6 270.5,38.7 270.9,38.7 L274.6,38.7 C275,38.7 275.3,38.6 275.5,38.3 C275.7,38 275.9,37.7 275.9,37.4 L275.9,33.8 L284.9,33.8 L284.9,36.3 C284.9,42.2 282.1,45.1 276.6,45.1 L269,45.1 C263.5,45.1 260.7,42.2 260.7,36.3 L260.7,20 C260.7,14.1 263.5,11.2 269,11.2 L276.5,11.2 Z M269.6,24.8 L275.8,24.8 L275.8,18.8 C275.8,18.4 275.7,18.1 275.4,17.9 C275.2,17.6 274.9,17.5 274.5,17.5 L270.8,17.5 C270.4,17.5 270.1,17.6 269.9,17.9 C269.7,18.2 269.5,18.5 269.5,18.8 L269.5,24.8 L269.6,24.8 Z" id="Shape"></path>
                    </g>
                    <g id="Group">
                        <path d="M90.8,0.6 C89.3,-0.3 87.4,-0.1 86.1,1.1 C82.1,4.7 77,6.6 71.6,6.5 C71.2,6.5 70.9,6.5 70.6,6.5 L70.5,6.5 C70.4,6.5 70.4,6.5 70.3,6.5 L22.3,6.5 C22,6.5 21.6,6.5 21.3,6.5 C16,6.6 10.8,4.7 6.8,1.1 C5.5,-0.1 3.7,-0.3 2.1,0.6 C0.6,1.5 -0.2,3.1 0.1,4.8 L0.1,4.9 C1.3,11.2 4.7,16.6 9.8,20.4 L9.8,65.2 C9.8,73.1 16.2,79.6 24.2,79.6 L68.6,79.6 C76.5,79.6 83,73.2 83,65.2 L83,20.4 C88.1,16.6 91.5,11.1 92.7,4.9 L92.7,4.8 C93.1,3.1 92.4,1.5 90.8,0.6 Z M79.9,17.7 L79,18.3 L79,48.6 L79.6,48 C80.4,47.2 81.7,47.1 82.5,47.9 C83.3,48.7 83.4,50 82.6,50.8 L79,54.5 L79,65.2 C79,70.8 74.4,75.4 68.8,75.4 L24.4,75.4 C18.8,75.4 14.2,70.8 14.2,65.2 L14.2,54.4 L10.7,50.8 C9.9,50 9.9,48.7 10.8,47.9 C11.6,47.1 12.9,47.1 13.7,48 L14.2,48.5 L14.2,18.3 L13.3,17.7 C8.7,14.6 5.6,9.9 4.5,4.5 C9.3,8.7 15.3,10.9 21.6,10.7 C21.7,10.7 21.7,10.7 21.8,10.7 C22,10.7 22.3,10.7 22.5,10.7 L70.8,10.7 C71,10.7 71.2,10.7 71.5,10.7 C71.6,10.7 71.6,10.7 71.7,10.7 C78,10.9 84.1,8.7 88.8,4.5 C87.6,9.8 84.4,14.5 79.9,17.7 Z" id="Shape"></path>
                        <path d="M70.2,47.9 L70.1,47.8 C69.5,47.2 68.7,46.9 67.8,46.9 C67,46.9 66.2,47.2 65.5,47.8 L60.7,52.8 L56,47.9 L55.9,47.8 C55.3,47.2 54.5,46.9 53.6,46.9 C52.8,46.9 52,47.2 51.3,47.8 L46.5,52.8 L41.8,47.9 L41.7,47.8 C41.1,47.2 40.3,46.9 39.4,46.9 C38.6,46.9 37.8,47.2 37.1,47.8 L32.3,52.8 L27.6,47.9 L27.5,47.8 C26.9,47.2 26.1,46.9 25.2,46.9 C24.4,46.9 23.6,47.2 22.9,47.8 L18.1,52.8 L13.9,48.4 L13.4,47.9 C12.6,47.1 11.3,47 10.5,47.8 C9.7,48.6 9.6,49.9 10.4,50.7 L13.9,54.3 L15.5,56 C16.2,56.7 17.1,57.1 18.1,57.1 C18.1,57.1 18.1,57.1 18.1,57.1 C19.1,57.1 20,56.7 20.7,56 L25.2,51.3 L29.7,56 C30.4,56.7 31.3,57.1 32.3,57.1 C32.3,57.1 32.3,57.1 32.3,57.1 C33.3,57.1 34.2,56.7 34.9,56 L39.4,51.3 L43.9,56 C44.6,56.7 45.5,57.1 46.5,57.1 C46.5,57.1 46.5,57.1 46.5,57.1 C47.5,57.1 48.4,56.7 49.1,56 L53.6,51.3 L58.1,56 C58.8,56.7 59.7,57.1 60.7,57.1 C60.7,57.1 60.7,57.1 60.7,57.1 C61.7,57.1 62.6,56.7 63.3,56 L67.8,51.3 L72.3,56 C73,56.7 73.9,57.1 74.9,57.1 C74.9,57.1 74.9,57.1 74.9,57.1 C75.9,57.1 76.8,56.7 77.5,56 L79,54.4 L82.6,50.7 C83.4,49.9 83.4,48.6 82.5,47.8 C81.7,47 80.4,47 79.6,47.9 L79,48.5 L74.9,52.8 L70.2,47.9 Z" id="Path"></path>
                    </g>
                </g>
            </g>
        </g>
    </g>
</svg>