<svg width="219" height="36" viewBox="0 0 219 36" xmlns="http://www.w3.org/2000/svg"><title>logo-lf/normal</title><g fill="none" fill-rule="evenodd"><path fill="#211F20" d="M54.313 3.65h3.697v24.677h14.712v3.112H54.313V3.65M74.05 31.439h3.697V3.65H74.05zm31.448-3.463c-1.674 2.608-4.826 3.929-7.86 3.929-7.512 0-8.678-5.332-8.678-7.587 0-4.36 2.955-6.54 6.498-8.408-1.556-2.217-3.075-3.697-3.075-6.537 0-3.037 2.257-5.723 6.266-5.723 3.463 0 6.734 1.908 6.734 5.683 0 3.308-2.531 5.683-5.217 7.2l5.02 6.11c.506-1.362.818-2.841.897-4.32h3.152c-.272 3.27-.7 4.398-1.869 6.85l5.411 6.266h-4.32l-2.959-3.463zm-8.212-9.963c-2.608 1.477-4.825 2.957-4.825 6.265 0 2.801 2.608 4.71 5.292 4.71 2.532 0 4.555-1.286 5.916-3.31l-6.383-7.665zm4.788-8.486c0-1.594-1.206-2.957-3.191-2.957-1.557 0-3.191.934-3.191 2.957 0 1.674 1.477 3.309 2.685 4.826 1.595-1.011 3.697-2.49 3.697-4.826zm19.894-5.877h18.254v3.114h-14.557V15.6h12.766v3.114h-12.766V31.44h-3.697V3.65m42.503 17.747c0 7.007-4.008 10.704-10.936 10.704-7.16 0-11.403-3.308-11.403-10.704V3.65h3.697v17.747c0 4.905 2.802 7.59 7.706 7.59 4.669 0 7.24-2.685 7.24-7.59V3.65h3.696v17.747m3.858-17.747h3.931l14.634 22.535h.077V3.65h3.503v27.79h-4.048l-14.515-22.3h-.08v22.3h-3.502V3.65m46.902 24.326c-2.142 2.917-5.643 4.125-8.911 4.125-8.291 0-13.234-6.771-13.234-14.011 0-8.095 4.437-15.102 13.234-15.102 6.071 0 10.895 2.725 11.948 9.225h-3.697c-.74-4.203-4.126-6.111-8.251-6.111-6.734 0-9.537 5.84-9.537 11.794 0 5.797 3.346 11.091 9.537 11.091 5.72 0 9.145-4.008 8.911-9.068h-8.874v-3.114h12.183v14.634h-2.335l-.974-3.463"/><path d="M37.611 35.341c2.585 0 4.698-2.1 4.698-4.689V4.698A4.71 4.71 0 0 0 37.611 0H4.698A4.706 4.706 0 0 0 0 4.698v25.954a4.697 4.697 0 0 0 4.698 4.69h32.913" fill="#ED2327"/><path d="M15.977 5.233s-.281-1.538 2.064-1.615c2.355-.056 7.042.014 8.273.275 1.253.261 6.12.58 10.892 4.106.056.036 3.004 1.422 1.638 2.929-1.366 1.496-3.523-.711-3.523-.711l-.588-.074s-.267.277-.33 1.114c-.06.84.911 5.847-1.623 5.604-1.66-.166-1.34-2.108-1.383-2.33-.027-.225-.063-5.347-.063-5.347s.107-.719-.684-1.016c-.784-.288-3.2-1.3-4.04-1.371-.847-.069-1.626-.034-1.982.135 0 0-.261.979-.261 1.66 0 .676-.022.94.106 1.762 0 .01.056.01.014.334-.057.326-.266 1.217-.212 1.566.043.353.183 1.16.974 1.174.799.022.651-1.121.631-1.296-.036-.189-.639-1.656-.588-2.138.065-.494.302-1.314 1.332-1.34 1.042-.012 1.829.8 2.162 2.015.358 1.222.192 2.428.115 3.155-.1.73-.434 2.776-.484 3.658-.042.88-.056 2.302.3 3.285 0 .007 0 .2.524 1.229.007.018.085.029.056.37-.027.321-.348 1.455-1.287 1.403-.918-.063-2.394-1.316-2.508-3.519-.108-2.209-.23-3.622-.23-3.622s.013-.349-.311-.297c-.319.062-.29.13-.319.364-.041.232-.477 2.71-.421 5.018.045 2.258.124 2.173.124 2.173s.065.153.043.355c-.021.198-.056.453.14.477.188.023.821.059 1.037.084.21.015 1.554-.15 1.982.627.434.772.351 1.684-.511 2.161-.877.48-2.358.423-2.815.382-.456-.043-1.856-.277-2.585-.209-.73.063-3.173.263-3.782-.26-.61-.526-.678-.928-.61-1.453.07-.519.373-1.24 1.723-1.309 1.36-.068 1.855-.027 1.855-.027s.23-1.982.281-2.56c.027-.585.198-5.297.198-5.504 0-.232-.05-7.526-.05-7.526l.057-2.012c.008-.063.047-.603-.633-.618-.68-.025-.929 0-1.532.07-.601.062-2.234.375-2.83-.347-.468-.581-.336-.984-.336-.984" fill="#FFF"/><path d="M16.241 7.866s2.256-.166 3.397 1.987c.569 1.07.882 3.445-.601 3.63-1.49.202-1.786-.894-1.849-1.103-.065-.176-.133-.358-.25-1.186 0-.021-.122-.69-.954-.6-.828.093-.968 1.19-.941 1.428.021.303.077.713.644 1.995 0 0 .38.64.142 1.68-.237 1.045-.884 3.034-.884 3.034s-.51 1.578-.11 2.637c.393 1.05 1.1 1.02 1.358.952.28-.07.848-.616.412-1.701-.441-1.08-.677-1.43-.558-2.111a4.782 4.782 0 0 1 1.166-2.373c.719-.774 1.332-1.386 1.95-1.353.617.034 1.548.5 1.512 1.371 0 .21-.022.556-.862 1.692-.011.02-.672.765-.56 1.872.07.825.428 2.151.21 2.82-.21.669-.61 1.561-1.96 2.24-1.36.673-2.963.724-4.329-.832-1.317-1.495-1.155-2.358-1.204-2.77-.034-.408-.245-1.508.022-2.435.302-.983.88-2.644.858-3.656 0-.504-.626-1.953-.434-3.609.044-.268.359-2.01 1.71-2.858 1.064-.684 1.583-.663 2.115-.751" fill="#FFF"/><path d="M3.614 10.235s-.392-.537.26-1.296c.667-.76 1.576-1.626 3.209-2.304 1.652-.675 3.83-1.363 4.187-1.483.353-.107 1.199-.416 1.325-.443.133-.036.824-.445 1.504.027.68.477 1.044 1.249.58 1.973-.403.639-1.197.678-1.336.705-.169.047-1.17.168-1.393.643 0 0-.092.158-.14.497-.043.35-.358 3.533-.358 3.533s-.182 3.21-.197 5.056c-.007 1.836.015 5.03.015 5.03l.014 4.523s.544.457.89.596c.358.144 2.366.898 3.734 1.092 1.372.19 4.565.465 5.883.402.44-.022 5.47.138 8.53-1.34 0 0 .77-.16.778-1.069.021-.912-.042-4.487-.042-4.487s.042-2.077.328-2.805c.275-.732.898-.954 1.438-.918.531.04 1.175.249 1.336 1.046.154.803.307 2.115.32 3.183.023 1.06-.023 1.596-.06 1.902-.035.322-.055.706.168.848.203.15.812-.029 1.037-.142.237-.117 1.483-.801 1.483-.801s1.031-.405 1.557.417c.517.81.272 1.462-.17 1.926-.44.481-1.722 1.608-2.996 2.101-1.296.515-4.925 1.883-6.08 2.18-1.17.3-4.272.99-6.62.979-2.34-.014-4.355 0-6.018-.324-1.637-.322-4.83-.914-7.267-2.027-1.325-.596-4.3-2.009-5.429-2.855 0 0-.884-.806-.79-1.526.104-.727.56-1.156 1.071-1.213.553-.07.972.099 1.337.295.373.19 1.309.819 1.309.819s.036-.052.252.029c.232.092.364.128.364.128s.115.117.178-.245c.041-.357.27-2.06.327-2.927.07-.891.168-11.846.168-11.846s.106-.347-.245-.327a.883.883 0 0 0-.518.192s-1.282.708-1.547.816c-.288.117-.937.423-1.625.077-.274-.126-.634-.35-.75-.637m31.825 7.522s-.063-1.66 1.764-1.79c1.647-.116 1.95 1.79 1.95 1.79s0 1.886-1.81 1.886c-1.82 0-1.904-1.886-1.904-1.886" fill="#FFF"/><path d="M5.17 15.54s1.769-.116 1.913 1.942c.112 1.48-1.487 1.785-1.487 1.785s-2.29.238-2.217-2.046c.046-1.583 1.79-1.682 1.79-1.682" fill="#FFF"/></g></svg>